<svg width="880" height="169" viewBox="0 0 880 169" fill="none" xmlns="http://www.w3.org/2000/svg">
<path d="M76.2481 168.792C61.0588 168.792 47.7468 165.805 36.3121 159.832C25.0481 153.688 16.2588 145.325 9.94412 134.744C3.80012 124.163 0.728123 112.131 0.728123 98.648C0.728123 84.9947 3.71479 72.9627 9.68812 62.552C15.8321 51.9707 24.1948 43.6933 34.7761 37.72C45.5281 31.7467 57.7308 28.76 71.3841 28.76C84.6961 28.76 96.5575 31.6613 106.968 37.464C117.379 43.2667 125.571 51.4587 131.544 62.04C137.517 72.6213 140.504 85.08 140.504 99.416C140.504 100.781 140.419 102.317 140.248 104.024C140.248 105.731 140.163 107.352 139.992 108.888H26.0721V87.64H123.096L110.552 94.296C110.723 86.4453 109.101 79.5333 105.688 73.56C102.275 67.5867 97.5815 62.8933 91.6081 59.48C85.8055 56.0667 79.0641 54.36 71.3841 54.36C63.5335 54.36 56.6215 56.0667 50.6481 59.48C44.8455 62.8933 40.2375 67.672 36.8241 73.816C33.5815 79.7893 31.9601 86.872 31.9601 95.064V100.184C31.9601 108.376 33.8375 115.629 37.5921 121.944C41.3468 128.259 46.6375 133.123 53.4641 136.536C60.2908 139.949 68.1415 141.656 77.0161 141.656C84.6961 141.656 91.6081 140.461 97.7521 138.072C103.896 135.683 109.357 131.928 114.136 126.808L131.288 146.52C125.144 153.688 117.379 159.235 107.992 163.16C98.7761 166.915 88.1948 168.792 76.2481 168.792ZM205.094 167L146.47 30.296H179.75L230.182 150.872H213.798L266.022 30.296H296.742L238.118 167H205.094ZM377.248 168.792C362.059 168.792 348.747 165.805 337.312 159.832C326.048 153.688 317.259 145.325 310.944 134.744C304.8 124.163 301.728 112.131 301.728 98.648C301.728 84.9947 304.715 72.9627 310.688 62.552C316.832 51.9707 325.195 43.6933 335.776 37.72C346.528 31.7467 358.731 28.76 372.384 28.76C385.696 28.76 397.557 31.6613 407.968 37.464C418.379 43.2667 426.571 51.4587 432.544 62.04C438.517 72.6213 441.504 85.08 441.504 99.416C441.504 100.781 441.419 102.317 441.248 104.024C441.248 105.731 441.163 107.352 440.992 108.888H327.072V87.64H424.096L411.552 94.296C411.723 86.4453 410.101 79.5333 406.688 73.56C403.275 67.5867 398.581 62.8933 392.608 59.48C386.805 56.0667 380.064 54.36 372.384 54.36C364.533 54.36 357.621 56.0667 351.648 59.48C345.845 62.8933 341.237 67.672 337.824 73.816C334.581 79.7893 332.96 86.872 332.96 95.064V100.184C332.96 108.376 334.837 115.629 338.592 121.944C342.347 128.259 347.637 133.123 354.464 136.536C361.291 139.949 369.141 141.656 378.016 141.656C385.696 141.656 392.608 140.461 398.752 138.072C404.896 135.683 410.357 131.928 415.136 126.808L432.288 146.52C426.144 153.688 418.379 159.235 408.992 163.16C399.776 166.915 389.195 168.792 377.248 168.792ZM549.81 28.76C560.733 28.76 570.461 30.8933 578.994 35.16C587.698 39.4267 594.525 45.9973 599.474 54.872C604.423 63.576 606.898 74.84 606.898 88.664V167H574.898V92.76C574.898 80.6427 571.997 71.5973 566.194 65.624C560.562 59.6507 552.626 56.664 542.386 56.664C534.877 56.664 528.221 58.2 522.418 61.272C516.615 64.344 512.093 68.952 508.85 75.096C505.778 81.0693 504.242 88.664 504.242 97.88V167H472.242V30.296H502.706V67.16L497.33 55.896C502.109 47.192 509.021 40.536 518.066 35.928C527.282 31.1493 537.863 28.76 549.81 28.76ZM698.948 168.792C683.929 168.792 672.324 164.952 664.132 157.272C655.94 149.421 651.844 137.901 651.844 122.712V0.0879974H683.844V121.944C683.844 128.429 685.465 133.464 688.708 137.048C692.121 140.632 696.815 142.424 702.788 142.424C709.956 142.424 715.929 140.547 720.708 136.792L729.668 159.576C725.913 162.648 721.305 164.952 715.844 166.488C710.383 168.024 704.751 168.792 698.948 168.792ZM629.316 56.92V31.32H720.452V56.92H629.316Z" fill="#E5E5E5"/>
<path d="M737.304 167L797.464 88.664L796.952 105.816L739.608 30.296H775.192L815.384 84.056H801.816L842.264 30.296H876.824L818.968 105.816L819.224 88.664L879.128 167H843.032L800.792 109.912L814.104 111.704L772.632 167H737.304Z" fill="#FC3FBA"/>
</svg>
